<svg xmlns="http://www.w3.org/2000/svg" xmlns:xlink="http://www.w3.org/1999/xlink" width="500" zoomAndPan="magnify" viewBox="0 0 375 374.999991" height="500" preserveAspectRatio="xMidYMid meet" version="1.0"><defs><g/><clipPath id="623b35efaa"><path d="M 88 133 L 244.679688 133 L 244.679688 252 L 88 252 Z M 88 133 " clip-rule="nonzero"/></clipPath><clipPath id="b909f1db44"><path d="M 166 49.933594 L 192 49.933594 L 192 76 L 166 76 Z M 166 49.933594 " clip-rule="nonzero"/></clipPath><clipPath id="b53a3d9c49"><path d="M 174 313 L 181 313 L 181 318.433594 L 174 318.433594 Z M 174 313 " clip-rule="nonzero"/></clipPath></defs><rect x="-37.5" width="450" fill="#ffffff" y="-37.499999" height="449.999989" fill-opacity="1"/><rect x="-37.5" width="450" fill="#ffffff" y="-37.499999" height="449.999989" fill-opacity="1"/><rect x="-37.5" width="450" fill="#ffffff" y="-37.499999" height="449.999989" fill-opacity="1"/><g fill="#aea3b0" fill-opacity="1"><g transform="translate(41.308596, 319.293495)"><g><path d="M 227.539062 -27.734375 C 261.914062 -53.125 284.179688 -94.140625 284.179688 -140.429688 C 284.179688 -217.578125 222.265625 -280.078125 146.09375 -280.078125 C 69.921875 -280.078125 8.007812 -217.578125 8.007812 -140.429688 C 8.007812 -63.476562 69.921875 -0.78125 146.09375 -0.78125 C 166.992188 -0.78125 186.71875 -5.46875 204.296875 -13.867188 C 228.710938 1.171875 254.6875 8.789062 283.789062 -13.085938 C 267.382812 -7.226562 248.242188 -15.625 227.539062 -27.734375 Z M 146.09375 -12.304688 C 118.554688 -12.304688 93.359375 -23.4375 73.828125 -41.796875 C 86.523438 -52.34375 100.195312 -60.9375 120.703125 -60.9375 C 143.75 -60.9375 166.601562 -40.234375 191.015625 -22.851562 C 177.34375 -16.015625 162.109375 -12.304688 146.09375 -12.304688 Z M 212.695312 -36.71875 C 186.523438 -53.125 158.59375 -71.289062 131.640625 -71.289062 C 95.703125 -71.289062 77.929688 -55.859375 69.921875 -45.507812 C 47.265625 -68.945312 32.8125 -102.539062 32.8125 -140.039062 C 32.8125 -210.546875 83.59375 -267.96875 146.09375 -267.96875 C 208.59375 -267.96875 259.375 -210.546875 259.375 -140.039062 C 259.375 -97.65625 241.015625 -59.960938 212.695312 -36.71875 Z M 212.695312 -36.71875 "/></g></g></g><g clip-path="url(#623b35efaa)"><path fill="#4d0011" d="M 244.335938 251.230469 C 244.179688 250.621094 244.234375 249.992188 244.210938 249.371094 C 244.132812 247.1875 244.058594 245.007812 243.476562 242.878906 C 242.136719 238.019531 237.949219 234.558594 232.824219 234.0625 C 230.863281 233.875 228.894531 233.863281 226.925781 233.902344 C 225.613281 233.929688 224.308594 233.910156 223 233.734375 C 220.894531 233.457031 219.320312 232.417969 218.273438 230.589844 C 217.816406 229.792969 217.425781 228.953125 217.011719 228.128906 C 216.675781 227.457031 216.363281 226.769531 216.007812 226.105469 C 214.675781 223.601562 212.613281 222.226562 209.738281 222.203125 C 208.109375 222.191406 206.484375 222.261719 204.855469 222.253906 C 200.027344 222.234375 197.355469 219.117188 198.027344 214.335938 C 198.214844 213.015625 198.523438 211.710938 198.5625 210.371094 C 198.566406 210.25 198.574219 210.128906 198.574219 210.007812 C 198.578125 208.480469 198.171875 208.125 196.664062 208.445312 C 194.863281 208.828125 193.234375 209.652344 191.59375 210.449219 C 188.929688 211.746094 186.421875 213.34375 183.710938 214.554688 C 181.800781 215.40625 179.863281 216.171875 177.777344 216.5 C 173.742188 217.140625 171.507812 214.585938 172.757812 210.707031 C 173.488281 208.453125 174.839844 206.542969 176.285156 204.707031 C 179.136719 201.101562 182.324219 197.792969 185.347656 194.335938 C 186.929688 192.523438 188.554688 190.75 189.96875 188.796875 C 190.597656 187.929688 191.183594 187.035156 191.472656 185.988281 C 191.839844 184.636719 191.394531 183.824219 190.046875 183.433594 C 188.511719 182.992188 186.953125 183.144531 185.421875 183.40625 C 180.4375 184.265625 175.707031 185.972656 171.003906 187.757812 C 163.371094 190.65625 155.921875 193.964844 148.597656 197.589844 C 141.730469 200.988281 134.4375 203.242188 126.875 204.523438 C 119.59375 205.753906 112.285156 206.042969 104.964844 204.839844 C 103.742188 204.640625 102.53125 204.367188 101.335938 204.054688 C 96.527344 202.785156 93.089844 199.820312 90.921875 195.402344 C 87.707031 188.851562 87.285156 181.945312 89.0625 175.011719 C 90.921875 167.742188 94.34375 161.191406 99.664062 155.765625 C 102.765625 152.605469 106.117188 149.722656 109.679688 147.085938 C 116.113281 142.324219 123.117188 138.566406 130.691406 136.050781 C 138.5625 133.433594 146.703125 132.742188 154.945312 134.003906 C 158.761719 134.585938 162.101562 136.324219 165.128906 138.625 C 166.96875 140.023438 167.734375 142.007812 167.175781 144.320312 C 166.632812 146.558594 165.679688 148.582031 163.679688 149.929688 C 163.511719 150.042969 163.308594 150.296875 163.113281 150.109375 C 162.90625 149.917969 163.183594 149.726562 163.269531 149.550781 C 163.882812 148.234375 164.859375 147.117188 165.273438 145.679688 C 165.886719 143.570312 165.5625 141.804688 163.828125 140.292969 C 160.753906 137.613281 157.1875 136.109375 153.167969 135.683594 C 147.859375 135.125 142.601562 135.644531 137.363281 136.589844 C 132.390625 137.484375 127.925781 139.660156 123.378906 141.691406 C 114.371094 145.710938 106.601562 151.429688 100.144531 158.808594 C 94.757812 164.964844 91.523438 172.222656 90.847656 180.460938 C 90.496094 184.714844 90.992188 188.90625 92.535156 192.921875 C 93.4375 195.261719 94.804688 197.328125 96.539062 199.128906 C 98.691406 201.367188 101.445312 202.277344 104.464844 202.503906 C 110.964844 202.988281 117.382812 202.246094 123.757812 201.132812 C 131.917969 199.699219 139.664062 196.964844 147.203125 193.574219 C 154.800781 190.160156 162.378906 186.695312 170.308594 184.089844 C 174.8125 182.613281 179.347656 181.253906 184.046875 180.527344 C 185.972656 180.230469 187.910156 180.078125 189.84375 180.5 C 190.246094 180.589844 190.648438 180.703125 191.03125 180.847656 C 193.414062 181.746094 194.527344 183.722656 194.054688 186.21875 C 193.691406 188.125 192.742188 189.761719 191.636719 191.3125 C 189.957031 193.671875 188.03125 195.832031 186.175781 198.050781 C 183.453125 201.3125 180.605469 204.476562 178.117188 207.929688 C 177.179688 209.234375 176.335938 210.601562 175.867188 212.152344 C 175.46875 213.464844 175.792969 213.875 177.160156 213.765625 C 178.578125 213.65625 179.910156 213.175781 181.230469 212.679688 C 184.632812 211.402344 187.769531 209.589844 190.929688 207.832031 C 192.652344 206.875 194.386719 205.941406 196.320312 205.476562 C 199.503906 204.714844 201.757812 206.363281 202.003906 209.636719 C 202.140625 211.449219 201.730469 213.214844 201.566406 215 C 201.484375 215.871094 201.378906 216.742188 201.367188 217.613281 C 201.355469 219 201.921875 219.613281 203.300781 219.761719 C 204.390625 219.882812 205.484375 219.753906 206.570312 219.640625 C 208.214844 219.472656 209.855469 219.316406 211.515625 219.359375 C 214.664062 219.4375 217.109375 220.773438 218.90625 223.347656 C 219.433594 224.105469 219.890625 224.90625 220.304688 225.730469 C 220.726562 226.578125 221.152344 227.425781 221.59375 228.261719 C 222.453125 229.894531 223.753906 230.847656 225.625 231.140625 C 227.789062 231.480469 229.96875 231.628906 232.140625 231.878906 C 237.8125 232.523438 241.574219 235.59375 243.503906 240.886719 C 244.359375 243.234375 244.378906 245.746094 244.472656 248.222656 C 244.511719 249.222656 244.546875 250.226562 244.585938 251.226562 C 244.5 251.226562 244.417969 251.230469 244.335938 251.230469 " fill-opacity="1" fill-rule="nonzero"/></g><path fill="#4d0011" d="M 175.414062 284.613281 C 175.988281 283.125 176.683594 281.769531 177.425781 280.4375 C 177.527344 280.261719 177.597656 280.09375 177.476562 279.898438 C 176.761719 278.757812 176.050781 277.613281 175.292969 276.394531 C 174.546875 277.785156 173.863281 279.0625 173.179688 280.339844 C 173.097656 280.496094 173.058594 280.652344 173.15625 280.820312 C 173.898438 282.0625 174.640625 283.308594 175.414062 284.613281 Z M 172.660156 281.398438 C 172.363281 281.871094 172.152344 282.207031 171.871094 282.652344 C 171.722656 282.128906 171.925781 281.78125 172.027344 281.445312 C 172.183594 280.9375 172.285156 280.46875 171.933594 280 C 171.855469 279.894531 171.761719 279.746094 171.859375 279.597656 C 171.976562 279.429688 172.109375 279.5 172.230469 279.601562 C 172.457031 279.796875 172.488281 279.625 172.546875 279.449219 C 173.054688 277.90625 173.386719 276.304688 174.042969 274.8125 C 174.128906 274.617188 174.082031 274.4375 173.976562 274.257812 C 173.445312 273.363281 172.917969 272.464844 172.316406 271.445312 C 172.128906 272.152344 172.378906 272.753906 172.1875 273.351562 C 171.914062 273.210938 171.984375 272.996094 171.96875 272.828125 C 171.664062 269.445312 171.328125 266.0625 171.070312 262.671875 C 170.90625 260.496094 170.941406 258.300781 170.753906 256.125 C 170.242188 250.203125 169.554688 244.300781 168.597656 238.421875 C 167.816406 233.652344 166.683594 228.957031 165.878906 224.195312 C 165.132812 219.769531 164.996094 215.3125 164.921875 210.84375 C 164.875 207.90625 164.851562 204.96875 164.816406 202.03125 C 164.8125 201.546875 164.832031 201.070312 165.011719 200.425781 C 165.3125 201.066406 165.363281 201.589844 165.390625 202.125 C 165.574219 205.183594 165.515625 208.246094 165.539062 211.304688 C 165.59375 218.210938 166.628906 224.984375 168.175781 231.695312 C 168.96875 235.125 169.414062 238.621094 170.074219 242.078125 C 171.386719 248.984375 171.992188 255.972656 172 263.003906 C 172.003906 265.410156 172.082031 267.8125 172.167969 270.210938 C 172.171875 270.359375 172.140625 270.566406 172.21875 270.636719 C 173.144531 271.472656 173.632812 272.644531 174.527344 273.664062 C 174.976562 272.59375 175.398438 271.597656 175.808594 270.597656 C 175.941406 270.28125 175.71875 270.042969 175.570312 269.796875 C 174.597656 268.140625 173.691406 266.449219 172.902344 264.703125 C 172.699219 264.261719 172.550781 263.796875 172.402344 263.335938 C 172.3125 263.054688 172.253906 262.738281 172.566406 262.550781 C 172.894531 262.347656 173.167969 262.542969 173.410156 262.757812 C 173.800781 263.101562 174.050781 263.546875 174.296875 263.996094 C 175.085938 265.441406 175.878906 266.886719 176.660156 268.316406 C 176.972656 268.292969 176.992188 268.0625 177.089844 267.910156 C 177.265625 267.621094 177.363281 267.246094 177.601562 267.035156 C 179.074219 265.738281 178.523438 264.164062 178.230469 262.636719 C 177.570312 259.210938 176.707031 255.832031 176.53125 252.308594 C 176.304688 247.863281 176.632812 243.476562 177.339844 239.105469 C 177.769531 236.4375 177.785156 233.734375 178.117188 231.0625 C 178.402344 228.796875 178.75 226.542969 179.082031 224.285156 C 179.117188 224.050781 179.191406 223.808594 179.300781 223.597656 C 179.441406 223.335938 179.417969 222.839844 179.769531 222.875 C 180.074219 222.898438 180.085938 223.378906 180.171875 223.664062 C 180.410156 224.476562 180.316406 225.308594 180.175781 226.121094 C 179.449219 230.410156 179.417969 234.78125 178.675781 239.0625 C 177.964844 243.148438 177.667969 247.25 177.773438 251.386719 C 177.824219 253.613281 178.316406 255.765625 178.699219 257.941406 C 179.203125 260.824219 179.246094 263.738281 179.199219 266.65625 C 179.179688 267.820312 179.234375 268.984375 179.238281 270.152344 C 179.242188 270.378906 179.300781 270.632812 179.003906 270.992188 C 178.957031 269.828125 178.921875 268.8125 178.882812 267.800781 C 178.824219 267.792969 178.765625 267.789062 178.703125 267.785156 C 178.441406 268.578125 178.175781 269.371094 177.917969 270.164062 C 177.816406 270.472656 178.007812 270.730469 178.117188 270.996094 C 178.460938 271.839844 178.820312 272.679688 179.175781 273.519531 C 179.113281 273.570312 179.054688 273.621094 178.996094 273.671875 C 178.519531 273.230469 178.015625 272.8125 177.574219 272.332031 C 177.210938 271.9375 177.074219 272.042969 176.902344 272.476562 C 176.546875 273.378906 176.152344 274.269531 175.773438 275.164062 C 175.691406 275.363281 175.601562 275.566406 175.71875 275.789062 C 176.40625 277.089844 177.09375 278.390625 177.808594 279.742188 C 178.328125 278.988281 178.789062 278.308594 179.261719 277.636719 C 179.367188 277.484375 179.480469 277.238281 179.703125 277.34375 C 180.007812 277.496094 179.777344 277.742188 179.695312 277.902344 C 178.464844 280.289062 177.550781 282.820312 176.351562 285.21875 C 176.089844 285.734375 176.101562 286.136719 176.367188 286.640625 C 177.113281 288.058594 177.800781 289.503906 178.554688 291.03125 C 178.992188 290.328125 179.367188 289.6875 179.785156 289.074219 C 180.027344 288.71875 180.339844 288.402344 180.632812 288.082031 C 180.746094 287.957031 180.90625 287.816406 181.074219 287.945312 C 181.261719 288.089844 181.101562 288.257812 181.015625 288.390625 C 180.351562 289.414062 179.964844 290.578125 179.402344 291.648438 C 179.1875 292.054688 179.1875 292.386719 179.402344 292.800781 C 180.632812 295.15625 181.425781 297.679688 182.28125 300.183594 C 182.328125 300.316406 182.324219 300.460938 182.269531 300.636719 C 180.910156 298.398438 179.546875 296.175781 178.375 293.710938 C 176.3125 297.214844 174.742188 300.875 172.878906 304.441406 C 172.617188 304.136719 172.804688 303.972656 172.867188 303.8125 C 174.339844 300.144531 175.859375 296.492188 177.601562 292.9375 C 177.707031 292.730469 177.851562 292.519531 177.730469 292.257812 C 176.972656 290.609375 176.214844 288.964844 175.398438 287.199219 C 174.589844 288.84375 173.847656 290.347656 173.074219 291.914062 C 172.839844 291.589844 173 291.402344 173.066406 291.214844 C 173.589844 289.753906 174.105469 288.289062 174.652344 286.839844 C 174.828125 286.378906 174.839844 285.976562 174.617188 285.519531 C 173.960938 284.195312 173.34375 282.851562 172.660156 281.398438 " fill-opacity="1" fill-rule="nonzero"/><g clip-path="url(#b909f1db44)"><path fill="#4d0011" d="M 183.984375 54.765625 C 184.179688 54.386719 184.398438 54.019531 184.566406 53.632812 C 184.972656 52.671875 184.601562 51.847656 183.617188 51.503906 C 181.199219 50.652344 177.964844 52.527344 177.507812 55.035156 C 177.429688 55.457031 177.4375 55.800781 177.933594 55.957031 C 178.347656 56.085938 178.625 56.355469 178.511719 56.824219 C 178.394531 57.292969 177.988281 57.394531 177.589844 57.363281 C 176.214844 57.253906 175.03125 57.75 173.75 58.507812 C 174.835938 58.75 175.792969 58.761719 176.738281 58.777344 C 179.070312 58.8125 181.402344 58.820312 183.734375 58.800781 C 185.265625 58.785156 186.792969 58.808594 188.316406 58.957031 C 188.773438 59 189.234375 59.078125 189.675781 59.210938 C 191.367188 59.707031 192.160156 60.9375 191.917969 62.695312 C 191.65625 64.574219 190.839844 66.21875 189.609375 67.640625 C 188.328125 69.125 187.117188 69.304688 185.414062 68.324219 C 184.511719 67.800781 183.632812 67.230469 182.636719 66.886719 C 180.835938 66.261719 179.015625 66.28125 177.179688 66.714844 C 175.515625 67.105469 173.925781 67.710938 172.433594 68.539062 C 169.902344 69.949219 167.929688 71.777344 167.972656 74.984375 C 167.972656 75.164062 168.054688 75.421875 167.839844 75.515625 C 167.582031 75.621094 167.476562 75.339844 167.324219 75.207031 C 166.730469 74.679688 166.691406 73.980469 166.757812 73.257812 C 166.882812 71.957031 167.402344 70.792969 168.257812 69.84375 C 171.714844 66 176.066406 64.394531 181.1875 64.898438 C 182.480469 65.027344 183.640625 65.644531 184.753906 66.304688 C 185.085938 66.503906 185.410156 66.726562 185.738281 66.933594 C 187.207031 67.859375 187.957031 67.738281 188.976562 66.328125 C 189.800781 65.191406 190.375 63.933594 190.535156 62.527344 C 190.664062 61.382812 190.347656 61.039062 189.203125 60.914062 C 187.617188 60.742188 186.050781 61.027344 184.484375 61.195312 C 180.578125 61.613281 176.675781 61.542969 172.773438 61.144531 C 172.363281 61.101562 171.957031 61.019531 171.578125 60.84375 C 170.222656 60.21875 170.035156 58.628906 171.222656 57.714844 C 172.390625 56.820312 173.769531 56.421875 175.183594 56.15625 C 175.695312 56.0625 175.878906 55.886719 175.914062 55.324219 C 176.074219 52.660156 178.839844 50.191406 181.796875 49.992188 C 182.820312 49.925781 183.777344 50.089844 184.632812 50.699219 C 185.277344 51.15625 185.535156 51.757812 185.339844 52.535156 C 185.117188 53.410156 184.761719 54.214844 183.984375 54.765625 " fill-opacity="1" fill-rule="nonzero"/></g><path fill="#4d0011" d="M 194.550781 161.855469 C 193.648438 160.113281 192.757812 158.5625 192.023438 156.941406 C 190.078125 152.636719 188.507812 148.207031 187.785156 143.515625 C 187.261719 140.132812 187.484375 136.746094 187.820312 133.355469 C 188.253906 128.929688 189.734375 124.820312 191.242188 120.679688 C 192.777344 116.460938 195.011719 112.652344 197.335938 108.863281 C 199.671875 105.054688 201.839844 101.140625 204.574219 97.589844 C 205.242188 96.726562 205.625 95.667969 206.390625 94.871094 C 206.488281 94.769531 206.539062 94.609375 206.757812 94.632812 C 207 95.253906 206.988281 95.878906 206.777344 96.523438 C 206.230469 98.207031 205.296875 99.6875 204.296875 101.125 C 201.121094 105.695312 198.363281 110.527344 195.480469 115.285156 C 193.199219 119.046875 191.855469 123.222656 190.46875 127.367188 C 189.632812 129.851562 188.894531 132.363281 188.433594 134.949219 C 187.675781 139.1875 188.316406 143.308594 189.417969 147.398438 C 190.324219 150.78125 191.636719 154.015625 192.992188 157.238281 C 193.507812 158.46875 193.996094 159.710938 194.480469 160.953125 C 194.5625 161.164062 194.75 161.371094 194.550781 161.855469 " fill-opacity="1" fill-rule="nonzero"/><path fill="#4d0011" d="M 170.777344 158.882812 C 171.046875 157.492188 171.316406 156.097656 171.578125 154.707031 C 172.253906 151.132812 173.035156 147.5625 173.324219 143.941406 C 173.714844 138.992188 173.714844 134.039062 172.039062 129.253906 C 171.644531 128.125 171.089844 127.078125 170.515625 126.035156 C 169.992188 125.097656 169.542969 124.132812 169.351562 123.066406 C 169.230469 122.414062 169.339844 121.816406 169.746094 121.277344 C 169.957031 121 170.128906 120.929688 170.359375 121.253906 C 170.570312 121.550781 170.820312 121.820312 170.9375 122.171875 C 171.445312 123.679688 172.285156 125.023438 173.101562 126.371094 C 175.691406 130.640625 176.304688 135.296875 175.539062 140.121094 C 174.667969 145.609375 173 150.925781 171.695312 156.320312 C 171.484375 157.195312 171.355469 158.097656 170.980469 158.925781 C 170.914062 158.914062 170.84375 158.898438 170.777344 158.882812 " fill-opacity="1" fill-rule="nonzero"/><path fill="#4d0011" d="M 188.058594 277.453125 C 187.921875 277.019531 188.15625 276.757812 188.3125 276.476562 C 190.957031 271.726562 193.863281 267.140625 196.832031 262.585938 C 202.207031 254.351562 208.09375 246.476562 213.671875 238.378906 C 213.953125 237.964844 214.351562 237.695312 214.746094 237.414062 C 215.042969 237.207031 215.195312 237.269531 215.167969 237.644531 C 215.121094 238.203125 214.984375 238.730469 214.714844 239.238281 C 212.914062 242.671875 210.597656 245.757812 208.242188 248.820312 C 202.824219 255.863281 197.464844 262.945312 192.46875 270.292969 C 191.035156 272.402344 189.738281 274.59375 188.464844 276.792969 C 188.332031 277.015625 188.195312 277.234375 188.058594 277.453125 " fill-opacity="1" fill-rule="nonzero"/><path fill="#4d0011" d="M 196.34375 250.957031 C 197.175781 248.664062 197.914062 246.519531 198.984375 244.507812 C 200.066406 242.472656 201.242188 240.492188 202.519531 238.570312 C 203.433594 237.195312 204.269531 235.777344 204.949219 234.265625 C 205.789062 232.394531 205.589844 230.6875 204.25 229.117188 C 203.9375 228.753906 203.671875 228.351562 203.4375 227.902344 C 204.09375 228.003906 204.625 228.332031 205.042969 228.824219 C 206.523438 230.546875 206.746094 232.515625 206.09375 234.625 C 205.789062 235.605469 205.269531 236.488281 204.703125 237.335938 C 201.851562 241.59375 199.347656 246.058594 196.84375 250.523438 C 196.761719 250.667969 196.707031 250.824219 196.34375 250.957031 " fill-opacity="1" fill-rule="nonzero"/><path fill="#4d0011" d="M 175.945312 95.75 C 176.023438 95.816406 176.085938 95.847656 176.085938 95.882812 C 176.414062 98.972656 177.558594 101.972656 177.125 105.152344 C 176.863281 107.078125 176.195312 108.859375 175.253906 110.539062 C 174.902344 111.167969 174.347656 111.617188 173.71875 111.953125 C 173.21875 112.21875 172.6875 112.316406 172.015625 111.945312 C 173.246094 111.5625 174.019531 110.824219 174.476562 109.746094 C 175.425781 107.492188 176.503906 105.292969 176.09375 102.703125 C 175.765625 100.617188 175.792969 98.496094 175.777344 96.386719 C 175.773438 96.175781 175.730469 95.949219 175.945312 95.75 " fill-opacity="1" fill-rule="nonzero"/><g clip-path="url(#b53a3d9c49)"><path fill="#4d0011" d="M 180.914062 314.027344 C 180.328125 315.421875 179.925781 316.816406 178.886719 317.882812 C 178.367188 318.414062 177.625 318.363281 176.964844 317.847656 C 176.21875 317.261719 175.722656 316.480469 175.367188 315.621094 C 175.125 315.042969 174.957031 314.429688 174.789062 313.824219 C 174.640625 313.296875 174.90625 313.148438 175.375 313.269531 C 175.757812 313.363281 175.992188 313.648438 176.1875 313.960938 C 176.578125 314.578125 176.863281 315.246094 177.167969 315.90625 C 177.792969 317.265625 178.289062 317.335938 179.203125 316.175781 C 179.621094 315.644531 179.964844 315.054688 180.347656 314.496094 C 180.464844 314.328125 180.492188 314.074219 180.914062 314.027344 " fill-opacity="1" fill-rule="nonzero"/></g></svg>